<svg width="32" height="32" viewBox="0 0 32 32" xmlns="http://www.w3.org/2000/svg">
  <rect width="32" height="32" rx="7" fill="#0f0a2e"/>
  <path d="M16 5 C16 5 9 5 7 10 C5 15 8 18 7 21 C6 24 8 27 11 27 C13 27 14 26 16 27"
    fill="#312e81" stroke="none"/>
  <path d="M16 5 C16 5 23 5 25 10 C27 15 24 18 25 21 C26 24 24 27 21 27 C19 27 18 26 16 27"
    fill="#312e81" stroke="none"/>
  <path d="M16 5 C9 5 7 10 5 15 C8 18 7 21 6 24 C8 27 11 27 13 27 C14 26 16 27 C18 26 19 27 21 27 C24 27 26 24 25 21 C24 18 27 15 25 10 C23 5 16 5 Z"
    fill="none" stroke="#818cf8" stroke-width="1.8" stroke-linecap="round" stroke-linejoin="round"/>
  <line x1="16" y1="5" x2="16" y2="27" stroke="#6366f1" stroke-width="1" stroke-dasharray="2 2"/>
  <path d="M13 11 C10 11 9 13 10 15" fill="none" stroke="#a5b4fc" stroke-width="1.3" stroke-linecap="round"/>
  <path d="M12 18 C9 18 8 21 10 22" fill="none" stroke="#a5b4fc" stroke-width="1.3" stroke-linecap="round"/>
  <path d="M19 11 C22 11 23 13 22 15" fill="none" stroke="#a5b4fc" stroke-width="1.3" stroke-linecap="round"/>
  <path d="M20 18 C23 18 24 21 22 22" fill="none" stroke="#a5b4fc" stroke-width="1.3" stroke-linecap="round"/>
  <circle cx="16" cy="16" r="1.5" fill="#818cf8"/>
</svg>
